<?xml version="1.0" encoding="UTF-8" standalone="no"?>
<!-- Created with Inkscape (http://www.inkscape.org/) -->

<svg
   xmlns:dc="http://purl.org/dc/elements/1.1/"
   xmlns:cc="http://creativecommons.org/ns#"
   xmlns:rdf="http://www.w3.org/1999/02/22-rdf-syntax-ns#"
   xmlns:svg="http://www.w3.org/2000/svg"
   xmlns="http://www.w3.org/2000/svg"
   xmlns:sodipodi="http://sodipodi.sourceforge.net/DTD/sodipodi-0.dtd"
   xmlns:inkscape="http://www.inkscape.org/namespaces/inkscape"
   width="752.5"
   height="437.5"
   id="svg2"
   version="1.1"
   inkscape:version="0.48.4 r9939"
   sodipodi:docname="NBA_ready.svg">
  <defs
     id="defs4" />
  <sodipodi:namedview
     id="base"
     pagecolor="#ffffff"
     bordercolor="#666666"
     borderopacity="1.0"
     inkscape:pageopacity="0.0"
     inkscape:pageshadow="2"
     inkscape:zoom="1.4142136"
     inkscape:cx="490.27687"
     inkscape:cy="142.27437"
     inkscape:document-units="px"
     inkscape:current-layer="g11"
     showgrid="false"
     inkscape:window-width="1600"
     inkscape:window-height="876"
     inkscape:window-x="0"
     inkscape:window-y="24"
     inkscape:window-maximized="1"
     fit-margin-top="0"
     fit-margin-left="0"
     fit-margin-right="0"
     fit-margin-bottom="0" />
  <metadata
     id="metadata7">
    <rdf:RDF>
      <cc:Work
         rdf:about="">
        <dc:format>image/svg+xml</dc:format>
        <dc:type
           rdf:resource="http://purl.org/dc/dcmitype/StillImage" />
        <dc:title></dc:title>
      </cc:Work>
    </rdf:RDF>
  </metadata>
  <g
     inkscape:label="Layer 1"
     inkscape:groupmode="layer"
     id="layer1"
     transform="translate(1390.3516,-836.65905)">
    <g
       id="g11"
       transform="matrix(1.25,0,0,-1.25,-34.464286,1328.4336)">
      <g
         id="g6251"
         style="fill:#000000;fill-opacity:1"
         transform="matrix(-1,0,0,-1,-1567.4286,436.85714)">
        <path
           inkscape:connector-curvature="0"
           d="m -790.92769,201.78537 0.2002,1.9901 c 2.3066,-0.2295 4.6462,-0.3469 7.0132,-0.3469 2.3669,0 4.7062,0.1174 7.0126,0.3468 l 0.2007,-1.99 c -2.3725,-0.236 -4.7788,-0.3568 -7.2133,-0.3568 -2.4346,0 -4.8409,0.1208 -7.2134,0.3568 z"
           id="path61"
           style="fill:#000000;fill-opacity:1;fill-rule:nonzero;stroke:none" />
        <path
           inkscape:connector-curvature="0"
           d="m -762.35669,204.64847 -0.5932,1.9105 c 4.5166,1.4007 8.8374,3.2461 12.9113,5.4852 l 0.9624,-1.7538 c -4.1906,-2.3031 -8.635,-4.2012 -13.2805,-5.6419 z"
           id="path63"
           style="fill:#000000;fill-opacity:1;fill-rule:nonzero;stroke:none" />
        <path
           inkscape:connector-curvature="0"
           d="m -737.18899,218.47187 -1.292,1.5264 c 3.5745,3.0279 6.8416,6.408 9.7471,10.0866 l 1.5703,-1.2381 c -2.9882,-3.7837 -6.3486,-7.2604 -10.0254,-10.3749 z"
           id="path65"
           style="fill:#000000;fill-opacity:1;fill-rule:nonzero;stroke:none" />
        <path
           inkscape:connector-curvature="0"
           d="m -720.52686,241.01027 -1.7864,0.9004 c 2.095,4.1459 3.7896,8.5286 5.033,13.097 l 1.9302,-0.5263 c -1.2789,-4.699 -3.022,-9.2067 -5.1768,-13.4711 z"
           id="path67"
           style="fill:#000000;fill-opacity:1;fill-rule:nonzero;stroke:none" />
        <path
           inkscape:connector-curvature="0"
           d="m -805.07199,204.64847 0.5932,1.9105 c -4.5166,1.4007 -8.8374,3.2461 -12.9113,5.4852 l -0.9624,-1.7538 c 4.1906,-2.3031 8.635,-4.2012 13.2805,-5.6419 z"
           id="path71"
           style="fill:#000000;fill-opacity:1;fill-rule:nonzero;stroke:none" />
        <path
           inkscape:connector-curvature="0"
           d="m -830.23969,218.47187 1.292,1.5264 c -3.5745,3.0279 -6.8416,6.408 -9.7471,10.0866 l -1.5703,-1.2381 c 2.9883,-3.7837 6.3486,-7.2604 10.0254,-10.3749 z"
           id="path73"
           style="fill:#000000;fill-opacity:1;fill-rule:nonzero;stroke:none" />
        <path
           inkscape:connector-curvature="0"
           d="m -848.03319,241.01027 1.7864,0.9004 c -2.095,4.1459 -3.7896,8.5286 -5.033,13.097 l -1.9302,-0.5263 c 1.2789,-4.699 3.022,-9.2067 5.1768,-13.4711 z"
           id="path75"
           style="fill:#000000;fill-opacity:1;fill-rule:nonzero;stroke:none" />
      </g>
      <g
         id="g6273"
         style="stroke:#000000;stroke-opacity:1"
         transform="matrix(-1,0,0,-1,-1567.4286,436.85714)">
        <path
           inkscape:connector-curvature="0"
           d="m -650.71429,45.428571 0,6"
           id="path49"
           style="fill:none;stroke:#000000;stroke-width:2;stroke-linecap:butt;stroke-linejoin:miter;stroke-miterlimit:3.86360002;stroke-opacity:1;stroke-dasharray:none" />
        <path
           inkscape:connector-curvature="0"
           d="m -916.71429,45.428571 0,6"
           id="path51"
           style="fill:none;stroke:#000000;stroke-width:2;stroke-linecap:butt;stroke-linejoin:miter;stroke-miterlimit:3.86360002;stroke-opacity:1;stroke-dasharray:none" />
        <g
           id="g6290">
          <g
             style="stroke:#000000;stroke-opacity:1"
             id="g6279">
            <path
               style="fill:none;stroke:#000000;stroke-width:1;stroke-linecap:butt;stroke-linejoin:miter;stroke-miterlimit:3.86369991;stroke-opacity:1;stroke-dasharray:none"
               id="path41"
               d="m -792.71429,108.42857 c 0,4.9705 4.0292,9 9,9 4.9707,0 9,-4.0295 9,-9 0,-4.9706 -4.0293,-8.999999 -9,-8.999999 -4.9708,0 -9,4.029399 -9,8.999999 z"
               inkscape:connector-curvature="0" />
            <path
               style="fill:none;stroke:#000000;stroke-width:2;stroke-linecap:butt;stroke-linejoin:miter;stroke-miterlimit:3.86360002;stroke-opacity:1;stroke-dasharray:none"
               id="path43"
               d="m -830.71429,108.42857 c 0,25.9577 21.0422,47 47,47 25.9577,0 47,-21.0423 47,-47"
               inkscape:connector-curvature="0" />
            <path
               style="fill:none;stroke:#000000;stroke-width:2;stroke-linecap:butt;stroke-linejoin:miter;stroke-miterlimit:3.86360002;stroke-opacity:1;stroke-dasharray:none"
               id="path53"
               d="m -819.71429,94.428571 72,0"
               inkscape:connector-curvature="0" />
            <path
               style="fill:none;stroke:#000000;stroke-width:2;stroke-linecap:butt;stroke-linejoin:miter;stroke-miterlimit:3.86360002;stroke-opacity:1;stroke-dasharray:none"
               id="path83"
               d="m -854.69869,273.42857 c 0,39.2127 31.7717,71 70.9844,71 39.2126,0 71,-31.7873 71,-71"
               inkscape:connector-curvature="0" />
          </g>
          <g
             id="g6367">
            <g
               id="g6383">
              <g
                 style="fill:none;stroke:#000000;stroke-opacity:1"
                 id="g6260">
                <path
                   style="fill:none;stroke:#000000;stroke-width:2;stroke-linecap:butt;stroke-linejoin:miter;stroke-miterlimit:3.86360002;stroke-opacity:1;stroke-dasharray:none"
                   id="path101"
                   d="m -878.71429,130.42857 -9,0"
                   inkscape:connector-curvature="0" />
                <path
                   style="fill:none;stroke:#000000;stroke-width:2;stroke-linecap:butt;stroke-linejoin:miter;stroke-miterlimit:3.86360002;stroke-opacity:1;stroke-dasharray:none"
                   id="path103"
                   d="m -878.71429,144.42857 -9,0"
                   inkscape:connector-curvature="0" />
                <path
                   style="fill:none;stroke:#000000;stroke-width:2;stroke-linecap:butt;stroke-linejoin:miter;stroke-miterlimit:3.86360002;stroke-opacity:1;stroke-dasharray:none"
                   id="path105"
                   d="m -878.71429,182.42857 -9,0"
                   inkscape:connector-curvature="0" />
                <path
                   style="fill:none;stroke:#000000;stroke-width:2;stroke-linecap:butt;stroke-linejoin:miter;stroke-miterlimit:3.86360002;stroke-opacity:1;stroke-dasharray:none"
                   id="path107"
                   d="m -878.71429,220.42857 -9,0"
                   inkscape:connector-curvature="0" />
                <path
                   style="fill:none;stroke:#000000;stroke-width:2;stroke-linecap:butt;stroke-linejoin:miter;stroke-miterlimit:3.86360002;stroke-opacity:1;stroke-dasharray:none"
                   id="path109"
                   d="m -688.71429,130.42857 9,0"
                   inkscape:connector-curvature="0" />
                <path
                   style="fill:none;stroke:#000000;stroke-width:2;stroke-linecap:butt;stroke-linejoin:miter;stroke-miterlimit:3.86360002;stroke-opacity:1;stroke-dasharray:none"
                   id="path111"
                   d="m -688.71429,144.42857 9,0"
                   inkscape:connector-curvature="0" />
                <path
                   style="fill:none;stroke:#000000;stroke-width:2;stroke-linecap:butt;stroke-linejoin:miter;stroke-miterlimit:3.86360002;stroke-opacity:1;stroke-dasharray:none"
                   id="path113"
                   d="m -688.71429,182.42857 9,0"
                   inkscape:connector-curvature="0" />
                <path
                   style="fill:none;stroke:#000000;stroke-width:2;stroke-linecap:butt;stroke-linejoin:miter;stroke-miterlimit:3.86360002;stroke-opacity:1;stroke-dasharray:none"
                   id="path115"
                   d="m -688.71429,220.42857 9,0"
                   inkscape:connector-curvature="0" />
              </g>
              <g
                 id="g6401">
                <path
                   inkscape:connector-curvature="0"
                   d="m -835.71429,202.42857 -6,0"
                   id="path79"
                   style="fill:none;stroke:#000000;stroke-width:2;stroke-linecap:butt;stroke-linejoin:miter;stroke-miterlimit:3.86360002;stroke-opacity:1;stroke-dasharray:none" />
                <path
                   inkscape:connector-curvature="0"
                   d="m -731.71429,202.42857 6,0"
                   id="path81"
                   style="fill:none;stroke:#000000;stroke-width:2;stroke-linecap:butt;stroke-linejoin:miter;stroke-miterlimit:3.86360002;stroke-opacity:1;stroke-dasharray:none" />
                <path
                   style="fill:none;stroke:#000000;stroke-width:2;stroke-linecap:butt;stroke-linejoin:miter;stroke-miterlimit:3.86360002;stroke-opacity:1;stroke-dasharray:none"
                   id="path31"
                   d="m -878.71429,45.428571 0,226.999999 190,0 0,-226.999999"
                   inkscape:connector-curvature="0" />
                <path
                   style="fill:none;stroke:#000000;stroke-width:2;stroke-linecap:butt;stroke-linejoin:miter;stroke-miterlimit:3.86360002;stroke-opacity:1;stroke-dasharray:none"
                   id="path47"
                   d="m -1047.6987,45.428571 0.025,167.999999 c 41.7534,104.8746 144.19851,179 263.95901,179 119.7604,0 222.2778,-74.1254 264.0312,-179 l -0.0312,-167.999999"
                   inkscape:connector-curvature="0" />
                <path
                   sodipodi:nodetypes="cc"
                   inkscape:connector-curvature="0"
                   d="m -482.71429,44.428571 -602.00001,0"
                   id="path241"
                   style="fill:none;stroke:#000000;stroke-width:2;stroke-linecap:butt;stroke-linejoin:miter;stroke-miterlimit:3.86360002;stroke-opacity:1;stroke-dasharray:none" />
              </g>
            </g>
          </g>
        </g>
      </g>
    </g>
  </g>
</svg>
